# File created by Blade
# Date/Time:  Tue Jan 27 19:38:14 2015
# Frame Rate: 120.000 fps
#------------------------------------------------------
:FULLY-SPECIFIED
:DEGREES
4472
root 4.401898 32.416415 2.044496 -1.295517 9.931799 1.604555
Spine 3.937224 1.757298 -1.616696
Head -0.932419 -12.763954 4.136012
LeftShoulder -13.768742 -5.381694 42.093712
LeftArm 16.875580 -18.106714 -44.425339
LeftForeArm 18.598994 -0.000000 -8.267216
LeftHand 8.664053 -0.000000 -3.612254
LeftHandThumb1 -26.253704 0.000000 33.147579
RightShoulder -21.273440 -21.449682 -36.719456
RightArm 16.020054 23.642938 48.200225
RightForeArm -16.377935 -0.000000 7.850191
RightHand 14.744169 -0.000000 1.741930
RightHandThumb1 -24.326973 -0.000000 -32.862282
LeftUpLeg 5.448623 -2.996337 -3.099478
LeftLeg 0.774504 -0.000000 -0.000000
LeftFoot -11.291213 4.066454 -21.476023
LeftToeBase 20.126703 -0.000000 -0.000000
RightUpLeg 6.355366 -9.386209 2.533207
RightLeg 1.128351 -0.000000 -0.000000
RightFoot -14.729891 -20.744699 15.298332
RightToeBase 9.952064 -0.000000 -0.000000
4473
root 4.409398 32.416012 2.049827 -1.314675 9.996773 1.610096
Spine 3.948806 1.713078 -1.609240
Head -0.926071 -12.817315 4.115621
LeftShoulder -13.767381 -5.371951 42.066493
LeftArm 16.859898 -18.205732 -44.718096
LeftForeArm 18.886094 -0.000000 -8.472055
LeftHand 8.590729 -0.000000 -4.015759
LeftHandThumb1 -26.253704 0.000000 33.147579
RightShoulder -21.312653 -21.468647 -36.635759
RightArm 16.030451 23.625169 48.464763
RightForeArm -16.655025 -0.000000 7.730960
RightHand 14.524024 -0.000000 2.119193
RightHandThumb1 -24.326973 -0.000000 -32.862282
LeftUpLeg 5.467484 -2.969127 -3.105809
LeftLeg 0.788530 -0.000000 -0.000000
LeftFoot -11.276059 3.956992 -21.487652
LeftToeBase 20.185597 -0.000000 -0.000000
RightUpLeg 6.386318 -9.385980 2.517979
RightLeg 1.144851 -0.000000 -0.000000
RightFoot -14.777661 -20.792276 15.337165
RightToeBase 9.931221 -0.000000 -0.000000
4474
root 4.419641 32.415773 2.057884 -1.318835 10.062392 1.617473
Spine 3.920961 1.655289 -1.601581
Head -0.889406 -12.850718 4.085926
LeftShoulder -13.767376 -5.383595 41.995965
LeftArm 16.853908 -18.212535 -44.914498
LeftForeArm 19.080468 -0.000000 -8.717834
LeftHand 8.645584 -0.000000 -4.289630
LeftHandThumb1 -26.253704 0.000000 33.147579
RightShoulder -21.353554 -21.468466 -36.546487
RightArm 16.035235 23.460682 48.616961
RightForeArm -16.773578 -0.000000 7.572305
RightHand 14.503245 0.000000 2.587954
RightHandThumb1 -24.326973 -0.000000 -32.862282
LeftUpLeg 5.482061 -2.975140 -3.123072
LeftLeg 0.793890 -0.000000 -0.000000
LeftFoot -11.264935 3.890144 -21.508670
LeftToeBase 20.233340 -0.000000 -0.000000
RightUpLeg 6.419990 -9.422371 2.499105
RightLeg 1.115990 -0.000000 -0.000000
RightFoot -14.679011 -20.874487 15.178979
RightToeBase 9.406181 -0.000000 -0.000000
4475
root 4.429375 32.415221 2.067374 -1.324289 10.118549 1.622466
Spine 3.887939 1.594008 -1.585376
Head -0.851226 -12.881461 4.040577
LeftShoulder -13.761812 -5.338832 41.945383
LeftArm 16.840919 -18.328411 -45.151775
LeftForeArm 19.207034 -0.000000 -8.869473
LeftHand 8.627154 -0.000000 -4.693517
LeftHandThumb1 -26.253704 0.000000 33.147579
RightShoulder -21.403426 -21.526391 -36.455866
RightArm 16.112535 23.292961 48.787608
RightForeArm -16.830344 -0.000000 7.409841
RightHand 14.312732 0.000000 2.811047
RightHandThumb1 -24.326973 -0.000000 -32.862282
LeftUpLeg 5.507736 -2.979086 -3.137176
LeftLeg 0.784956 -0.000000 -0.000000
LeftFoot -11.256547 3.819768 -21.511720
LeftToeBase 20.243900 -0.000000 -0.000000
RightUpLeg 6.455381 -9.448890 2.477751
RightLeg 1.109744 -0.000000 -0.000000
RightFoot -14.683706 -20.896823 15.165624
RightToeBase 9.346731 -0.000000 -0.000000
4476
root 4.440319 32.414955 2.076929 -1.336650 10.176128 1.625658
Spine 3.859592 1.512723 -1.564805
Head -0.810000 -12.882322 3.992771
LeftShoulder -13.771980 -5.298486 41.871216
LeftArm 16.829544 -18.357623 -45.330683
LeftForeArm 19.266717 -0.000000 -8.999760
LeftHand 8.587313 -0.000000 -4.977812
LeftHandThumb1 -26.253704 0.000000 33.147579
RightShoulder -21.416418 -21.514835 -36.387615
RightArm 16.095619 23.069378 48.864166
RightForeArm -16.772399 -0.000000 7.316251
RightHand 14.156984 -0.000000 3.108110
RightHandThumb1 -24.326973 -0.000000 -32.862282
LeftUpLeg 5.535104 -2.967225 -3.150563
LeftLeg 0.786603 -0.000000 -0.000000
LeftFoot -11.251950 3.741337 -21.534795
LeftToeBase 20.292965 -0.000000 -0.000000
RightUpLeg 6.490974 -9.455458 2.453032
RightLeg 1.136482 -0.000000 -0.000000
RightFoot -14.912009 -20.893536 15.454699
RightToeBase 9.785154 -0.000000 -0.000000
4477
root 4.450788 32.414025 2.086322 -1.355470 10.224362 1.633725
Spine 3.845634 1.448011 -1.556567
Head -0.791932 -12.869246 3.969579
LeftShoulder -13.786865 -5.251107 41.821630
LeftArm 16.837094 -18.369692 -45.519423
LeftForeArm 19.306302 -0.000000 -9.118430
LeftHand 8.551546 0.000000 -5.200978
LeftHandThumb1 -26.253704 0.000000 33.147579
RightShoulder -21.458778 -21.554967 -36.333212
RightArm 16.098934 22.785171 48.972753
RightForeArm -16.581210 -0.000000 7.229773
RightHand 14.238398 -0.000000 3.237010
RightHandThumb1 -24.326973 -0.000000 -32.862282
LeftUpLeg 5.574440 -2.972051 -3.170727
LeftLeg 0.781955 -0.000000 -0.000000
LeftFoot -11.262727 3.691225 -21.565346
LeftToeBase 20.352705 -0.000000 -0.000000
RightUpLeg 6.527949 -9.484289 2.430385
RightLeg 1.150591 -0.000000 -0.000000
RightFoot -14.857220 -20.953885 15.323238
RightToeBase 9.591737 -0.000000 -0.000000
4478
root 4.461443 32.413228 2.095809 -1.377519 10.255576 1.639254
Spine 3.830113 1.395529 -1.539373
Head -0.762491 -12.856963 3.935419
LeftShoulder -13.793595 -5.257338 41.774123
LeftArm 16.789671 -18.404953 -45.684736
LeftForeArm 19.379163 0.000000 -9.192267
LeftHand 8.565042 -0.000000 -5.342135
LeftHandThumb1 -26.253704 0.000000 33.147579
RightShoulder -21.465597 -21.562308 -36.293006
RightArm 16.079552 22.696148 49.103028
RightForeArm -16.457297 -0.000000 7.201077
RightHand 14.180227 -0.000000 3.147943
RightHandThumb1 -24.326973 -0.000000 -32.862282
LeftUpLeg 5.618992 -2.960313 -3.189425
LeftLeg 0.776255 -0.000000 -0.000000
LeftFoot -11.270671 3.642374 -21.553376
LeftToeBase 20.447977 -0.000000 -0.000000
RightUpLeg 6.573727 -9.484619 2.404543
RightLeg 1.154879 -0.000000 -0.000000
RightFoot -14.968396 -20.966855 15.454929
RightToeBase 9.738599 -0.000000 -0.000000
